<?xml version="1.0" encoding="UTF-8"?>
<svg xmlns="http://www.w3.org/2000/svg" xmlns:xlink="http://www.w3.org/1999/xlink" width="49px" height="50px" viewBox="0 0 49 49" version="1.1">
<defs>
<linearGradient id="linear0" gradientUnits="userSpaceOnUse" x1="379.92" y1="-298.54" x2="387.75" y2="-148.13" gradientTransform="matrix(0.208924,0,0,0.214318,-56.511715,69.479311)">
<stop offset="0" style="stop-color:rgb(0.392157%,27.45098%,65.882353%);stop-opacity:1;"/>
<stop offset="1" style="stop-color:rgb(0.392157%,27.45098%,65.882353%);stop-opacity:0;"/>
</linearGradient>
<linearGradient id="linear1" gradientUnits="userSpaceOnUse" x1="381.89" y1="-310.05" x2="387.75" y2="-147.97" gradientTransform="matrix(0.208924,0,0,0.214318,-56.511715,69.479311)">
<stop offset="0" style="stop-color:rgb(92.941176%,95.686275%,99.215686%);stop-opacity:0.529412;"/>
<stop offset="1" style="stop-color:rgb(9.019608%,35.686275%,70.196078%);stop-opacity:0;"/>
</linearGradient>
</defs>
<g id="surface1">
<path style=" stroke:none;fill-rule:nonzero;fill:rgb(6.27451%,21.176471%,51.372549%);fill-opacity:1;" d="M 48.984375 24.5 C 48.984375 38.03125 38.023438 49 24.5 49 C 10.976562 49 0.0117188 38.03125 0.0117188 24.5 C 0.0117188 10.96875 10.976562 0 24.5 0 C 38.023438 0 48.984375 10.96875 48.984375 24.5 Z M 48.984375 24.5 "/>
<path style=" stroke:none;fill-rule:nonzero;fill:url(#linear0);" d="M 47.410156 24.804688 C 47.410156 37.785156 37.152344 48.308594 24.5 48.308594 C 11.84375 48.308594 1.585938 37.785156 1.585938 24.804688 C 1.585938 11.824219 11.84375 1.300781 24.5 1.300781 C 37.152344 1.300781 47.410156 11.824219 47.410156 24.804688 Z M 47.410156 24.804688 "/>
<path style=" stroke:none;fill-rule:nonzero;fill:rgb(93.333333%,93.333333%,93.333333%);fill-opacity:1;" d="M 24.035156 8.09375 C 23.617188 8.109375 23.210938 8.1875 22.832031 8.320312 C 22.273438 8.523438 21.808594 8.84375 21.496094 9.242188 L 8.484375 25.929688 C 8.035156 26.503906 7.9375 27.199219 8.222656 27.832031 C 8.503906 28.464844 9.136719 28.976562 9.960938 29.234375 L 21.644531 14.253906 C 21.957031 13.851562 22.421875 13.527344 22.980469 13.324219 C 24.453125 12.792969 26.226562 13.207031 27.035156 14.265625 L 38.496094 29.210938 C 39.238281 28.917969 39.789062 28.410156 40.019531 27.804688 C 40.253906 27.203125 40.148438 26.554688 39.730469 26.011719 L 26.886719 9.261719 C 26.308594 8.5 25.203125 8.050781 24.035156 8.09375 Z M 24.035156 8.09375 "/>
<path style=" stroke:none;fill-rule:nonzero;fill:rgb(93.333333%,93.333333%,93.333333%);fill-opacity:1;" d="M 23.972656 15.75 C 23.714844 15.757812 23.464844 15.804688 23.234375 15.890625 C 22.890625 16.019531 22.601562 16.222656 22.410156 16.476562 L 14.414062 27.078125 C 14.386719 27.113281 14.359375 27.148438 14.335938 27.183594 C 14.335938 27.1875 14.339844 27.195312 14.335938 27.195312 C 14.332031 27.203125 14.324219 27.207031 14.320312 27.214844 C 14.085938 27.566406 13.957031 27.988281 13.957031 28.441406 L 13.957031 37.65625 C 13.957031 38.894531 14.960938 39.894531 16.214844 39.894531 L 20.886719 39.894531 L 20.886719 31.832031 C 20.886719 30.589844 21.890625 29.59375 23.144531 29.59375 L 24.882812 29.59375 C 26.136719 29.59375 27.140625 30.589844 27.140625 31.832031 L 27.140625 39.894531 L 31.804688 39.894531 C 33.058594 39.894531 34.070312 38.894531 34.070312 37.65625 L 34.070312 28.441406 C 34.070312 27.855469 33.839844 27.332031 33.46875 26.933594 L 25.71875 16.488281 C 25.363281 16.011719 24.6875 15.722656 23.972656 15.75 Z M 23.972656 15.75 "/>
<path style=" stroke:none;fill-rule:nonzero;fill:rgb(93.333333%,93.333333%,93.333333%);fill-opacity:1;" d="M 16.5625 10.890625 C 17.753906 10.890625 18.722656 12.441406 18.722656 14.355469 L 18.722656 14.789062 C 18.722656 16.703125 17.753906 18.253906 16.5625 18.253906 C 15.371094 18.253906 14.402344 16.703125 14.402344 14.789062 L 14.402344 14.355469 C 14.402344 12.441406 15.371094 10.890625 16.5625 10.890625 Z M 16.5625 10.890625 "/>
<path style=" stroke:none;fill-rule:nonzero;fill:url(#linear1);" d="M 24.5 1.296875 C 11.847656 1.296875 1.585938 11.828125 1.585938 24.808594 C 1.585938 25.636719 1.632812 26.449219 1.710938 27.253906 C 12.890625 31.386719 29.976562 34.398438 47.414062 24.917969 C 47.414062 24.882812 47.414062 24.84375 47.414062 24.808594 C 47.414062 11.828125 37.15625 1.296875 24.503906 1.296875 Z M 24.5 1.296875 "/>
</g>
</svg>
