<?xml version="1.0" encoding="UTF-8"?>
<svg xmlns="http://www.w3.org/2000/svg" xmlns:xlink="http://www.w3.org/1999/xlink" width="40px" height="40px" viewBox="0 0 30 30" version="1.1">
<g id="surface1">
<path style=" stroke:none;fill-rule:nonzero;fill:rgb(21.960784%,21.960784%,21.960784%);fill-opacity:1;" d="M 22.652344 29.472656 C 22.078125 29.472656 21.476562 29.308594 20.871094 28.988281 L 15.023438 25.871094 L 9.175781 28.988281 C 8.566406 29.308594 7.96875 29.472656 7.394531 29.472656 C 6.589844 29.472656 5.871094 29.152344 5.371094 28.5625 C 4.964844 28.082031 4.535156 27.214844 4.769531 25.808594 L 5.878906 19.222656 L 1.175781 14.675781 C 0.183594 13.714844 -0.191406 12.5625 0.144531 11.496094 C 0.480469 10.433594 1.457031 9.699219 2.816406 9.488281 L 9.371094 8.46875 L 12.300781 2.621094 C 12.914062 1.386719 13.910156 0.679688 15.023438 0.679688 C 16.140625 0.679688 17.132812 1.386719 17.746094 2.621094 L 20.675781 8.46875 L 27.222656 9.488281 C 28.589844 9.699219 29.5625 10.433594 29.902344 11.496094 C 30.238281 12.5625 29.863281 13.714844 28.871094 14.675781 L 24.167969 19.222656 L 25.28125 25.808594 C 25.515625 27.214844 25.078125 28.082031 24.675781 28.5625 C 24.175781 29.152344 23.457031 29.472656 22.652344 29.472656 "/>
<path style=" stroke:none;fill-rule:nonzero;fill:rgb(76.862745%,76.862745%,76.862745%);fill-opacity:1;" d="M 16.238281 3.378906 L 19.550781 10.007812 L 26.964844 11.160156 C 28.445312 11.394531 28.769531 12.421875 27.691406 13.460938 L 22.355469 18.628906 L 23.605469 26.089844 C 23.855469 27.566406 22.988281 28.195312 21.667969 27.488281 L 15.023438 23.949219 L 8.378906 27.488281 C 7.058594 28.195312 6.1875 27.566406 6.441406 26.089844 L 7.691406 18.628906 L 2.347656 13.460938 C 1.273438 12.421875 1.597656 11.394531 3.078125 11.160156 L 10.496094 10.007812 L 13.808594 3.378906 C 14.480469 2.042969 15.5625 2.042969 16.238281 3.378906 "/>
<path style=" stroke:none;fill-rule:nonzero;fill:rgb(81.176471%,81.176471%,81.176471%);fill-opacity:1;" d="M 22.355469 18.628906 L 23.605469 26.089844 "/>
<path style=" stroke:none;fill-rule:nonzero;fill:rgb(56.862745%,56.862745%,56.862745%);fill-opacity:1;" d="M 21.261719 18.265625 L 25.941406 13.742188 C 18.535156 13.105469 12.140625 14.558594 7.085938 16.625 L 8.785156 18.265625 L 7.4375 26.261719 C 7.394531 26.527344 7.660156 26.722656 7.902344 26.597656 L 15.023438 22.800781 L 22.144531 26.597656 C 22.386719 26.722656 22.652344 26.53125 22.613281 26.261719 Z M 21.261719 18.265625 "/>
<path style=" stroke:none;fill-rule:nonzero;fill:rgb(69.019608%,69.019608%,69.019608%);fill-opacity:1;" d="M 7.085938 16.625 L 8.785156 18.265625 L 8.316406 21.042969 C 11.410156 19.683594 16.433594 18.222656 21.882812 17.667969 L 25.941406 13.742188 C 18.535156 13.105469 12.140625 14.558594 7.085938 16.625 "/>
<path style=" stroke:none;fill-rule:nonzero;fill:rgb(85.098039%,85.098039%,85.098039%);fill-opacity:1;" d="M 7.085938 16.625 C 12.140625 14.558594 18.535156 13.105469 25.941406 13.742188 L 26.988281 12.730469 C 27.191406 12.535156 27.09375 12.210938 26.808594 12.164062 L 18.878906 10.929688 L 18.46875 10.109375 C 13.558594 10.566406 9.308594 11.972656 4.589844 14.207031 Z M 7.085938 16.625 "/>
<path style=" stroke:none;fill-rule:nonzero;fill:rgb(85.098039%,85.098039%,85.098039%);fill-opacity:1;" d="M 8.230469 26.632812 C 8.230469 27.035156 7.886719 27.355469 7.464844 27.355469 C 7.035156 27.355469 6.683594 27.035156 6.683594 26.632812 C 6.683594 26.238281 7.035156 25.917969 7.464844 25.917969 C 7.886719 25.917969 8.230469 26.238281 8.230469 26.632812 "/>
<path style=" stroke:none;fill-rule:nonzero;fill:rgb(100%,100%,100%);fill-opacity:1;" d="M 14.8125 3.1875 C 14.449219 3.1875 12.277344 8.128906 11.113281 9.863281 C 11.066406 9.855469 11.019531 9.847656 10.972656 9.847656 C 10.480469 9.847656 10.074219 10.199219 10.027344 10.660156 C 8.394531 11.105469 4.519531 11.542969 2.691406 11.917969 C 2.722656 12.507812 8.199219 11.949219 10.398438 11.449219 C 10.550781 11.558594 10.757812 11.628906 10.972656 11.628906 C 11.503906 11.628906 11.929688 11.230469 11.929688 10.738281 C 11.929688 10.621094 11.902344 10.503906 11.859375 10.402344 C 13.191406 8.335938 15.375 3.136719 14.8125 3.1875 "/>
</g>
</svg>
