<?xml version="1.0" encoding="UTF-8"?>
<svg xmlns="http://www.w3.org/2000/svg" xmlns:xlink="http://www.w3.org/1999/xlink" width="50px" height="50px" viewBox="0 0 50 50" version="1.1">
<g id="surface1">
<path style=" stroke:none;fill-rule:nonzero;fill:rgb(32.941176%,19.607843%,14.117647%);fill-opacity:1;" d="M 37.753906 49.121094 C 36.796875 49.121094 35.796875 48.847656 34.785156 48.308594 L 25.039062 43.117188 L 15.292969 48.308594 C 14.277344 48.847656 13.28125 49.121094 12.324219 49.121094 C 10.980469 49.121094 9.785156 48.582031 8.957031 47.601562 C 8.277344 46.800781 7.554688 45.355469 7.945312 43.019531 L 9.792969 32.039062 L 1.957031 24.464844 C 0.304688 22.867188 -0.324219 20.933594 0.238281 19.160156 C 0.800781 17.386719 2.429688 16.167969 4.699219 15.816406 L 15.617188 14.117188 L 20.492188 4.371094 C 21.523438 2.316406 23.179688 1.136719 25.039062 1.136719 C 26.898438 1.136719 28.554688 2.316406 29.582031 4.367188 L 34.460938 14.117188 L 45.375 15.816406 C 47.648438 16.167969 49.273438 17.386719 49.835938 19.160156 C 50.398438 20.933594 49.773438 22.867188 48.121094 24.464844 L 40.285156 32.039062 L 42.132812 43.019531 C 42.523438 45.355469 41.796875 46.800781 41.121094 47.601562 C 40.292969 48.582031 39.09375 49.121094 37.753906 49.121094 "/>
<path style=" stroke:none;fill-rule:nonzero;fill:rgb(100%,80.784314%,0%);fill-opacity:1;" d="M 27.058594 5.632812 L 32.589844 16.679688 L 44.941406 18.601562 C 47.40625 18.988281 47.949219 20.703125 46.15625 22.4375 L 37.253906 31.042969 L 39.347656 43.488281 C 39.761719 45.949219 38.3125 46.992188 36.113281 45.816406 L 25.039062 39.917969 L 13.964844 45.816406 C 11.761719 46.992188 10.316406 45.949219 10.726562 43.488281 L 12.820312 31.042969 L 3.917969 22.4375 C 2.125 20.703125 2.667969 18.988281 5.132812 18.601562 L 17.488281 16.679688 L 23.015625 5.632812 C 24.132812 3.402344 25.941406 3.402344 27.058594 5.632812 "/>
<path style=" stroke:none;fill-rule:nonzero;fill:rgb(100%,86.666667%,8.235294%);fill-opacity:1;" d="M 37.253906 31.042969 L 39.347656 43.488281 "/>
<path style=" stroke:none;fill-rule:nonzero;fill:rgb(80%,54.117647%,12.156863%);fill-opacity:1;" d="M 35.4375 30.445312 L 43.238281 22.90625 C 30.890625 21.84375 20.234375 24.269531 11.8125 27.710938 L 14.640625 30.445312 L 12.398438 43.769531 C 12.324219 44.214844 12.761719 44.539062 13.167969 44.324219 L 25.039062 38 L 36.910156 44.324219 C 37.3125 44.539062 37.753906 44.21875 37.679688 43.769531 Z M 35.4375 30.445312 "/>
<path style=" stroke:none;fill-rule:nonzero;fill:rgb(95.686275%,67.843137%,12.941176%);fill-opacity:1;" d="M 11.8125 27.710938 L 14.640625 30.445312 L 13.859375 35.074219 C 19.011719 32.808594 27.394531 30.371094 36.46875 29.445312 L 43.238281 22.90625 C 30.890625 21.84375 20.234375 24.269531 11.8125 27.710938 "/>
<path style=" stroke:none;fill-rule:nonzero;fill:rgb(100%,94.509804%,0%);fill-opacity:1;" d="M 11.8125 27.710938 C 20.234375 24.269531 30.890625 21.84375 43.238281 22.90625 L 44.980469 21.21875 C 45.324219 20.886719 45.152344 20.347656 44.683594 20.277344 L 31.464844 18.21875 L 30.78125 16.851562 C 22.597656 17.605469 15.519531 19.949219 7.644531 23.683594 Z M 11.8125 27.710938 "/>
<path style=" stroke:none;fill-rule:nonzero;fill:rgb(100%,94.509804%,0%);fill-opacity:1;" d="M 13.722656 44.390625 C 13.722656 45.054688 13.148438 45.589844 12.4375 45.589844 C 11.722656 45.589844 11.148438 45.054688 11.148438 44.390625 C 11.148438 43.730469 11.722656 43.191406 12.4375 43.191406 C 13.148438 43.191406 13.722656 43.730469 13.722656 44.390625 "/>
<path style=" stroke:none;fill-rule:nonzero;fill:rgb(100%,100%,100%);fill-opacity:1;" d="M 24.6875 5.308594 C 24.085938 5.308594 20.460938 13.542969 18.523438 16.4375 C 18.449219 16.425781 18.371094 16.417969 18.292969 16.417969 C 17.464844 16.417969 16.785156 17.003906 16.707031 17.757812 C 13.996094 18.511719 7.527344 19.238281 4.488281 19.863281 C 4.535156 20.84375 13.667969 19.917969 17.328125 19.078125 C 17.59375 19.269531 17.929688 19.382812 18.292969 19.382812 C 19.167969 19.382812 19.882812 18.71875 19.882812 17.902344 C 19.882812 17.699219 19.839844 17.507812 19.761719 17.335938 C 21.984375 13.890625 25.621094 5.230469 24.6875 5.308594 "/>
</g>
</svg>
