<?xml version="1.0" standalone="no"?>
<!DOCTYPE svg PUBLIC "-//W3C//DTD SVG 20010904//EN"
 "http://www.w3.org/TR/2001/REC-SVG-20010904/DTD/svg10.dtd">
<svg version="1.0" xmlns="http://www.w3.org/2000/svg"
 width="100.000000pt" height="161.000000pt" viewBox="0 0 100.000000 161.000000"
 preserveAspectRatio="xMidYMid meet">

<g transform="translate(0.000000,161.000000) scale(0.100000,-0.100000)"
fill="#000000" stroke="none">
<path d="M377 1598 c-9 -7 -21 -25 -26 -40 -9 -24 -16 -28 -51 -28 -47 0 -53
-18 -9 -27 19 -4 34 -14 39 -29 5 -13 19 -33 31 -45 20 -20 21 -23 5 -34 -9
-7 -44 -18 -79 -25 -34 -7 -87 -19 -117 -26 -30 -8 -64 -14 -76 -14 -32 0 -49
-34 -67 -136 -21 -114 -22 -223 -2 -294 8 -30 18 -70 22 -88 3 -20 11 -31 18
-28 17 6 29 -5 40 -39 6 -16 20 -34 31 -39 18 -8 22 -21 27 -75 3 -36 17 -98
31 -137 31 -86 34 -101 42 -271 4 -73 11 -133 16 -133 4 0 6 -11 2 -25 -5 -19
-2 -27 12 -32 11 -3 22 -11 26 -17 9 -13 163 -14 163 -1 0 6 3 15 7 20 5 8 3
144 -3 230 0 6 7 64 16 130 9 66 16 146 15 177 -1 33 3 58 9 58 21 0 35 -278
21 -423 -9 -95 -9 -110 6 -124 10 -11 14 -26 10 -45 l-5 -28 70 0 c56 0 77 4
101 21 16 12 27 27 24 34 -3 9 7 16 32 20 l37 6 2 142 c1 78 5 183 9 232 3 50
6 99 5 110 -3 54 22 129 53 160 55 55 74 88 100 167 31 94 33 178 7 294 -19
84 -42 130 -69 138 -10 3 -57 12 -107 20 -135 23 -165 34 -165 56 0 11 11 27
25 36 14 9 25 23 25 30 0 9 12 14 35 14 19 0 35 5 35 10 0 6 -18 10 -40 10
-25 0 -40 5 -41 13 -7 70 -4 66 -56 78 -58 13 -216 11 -236 -3z"/>
</g>
</svg>
