<?xml version="1.0" standalone="no"?>
<!DOCTYPE svg PUBLIC "-//W3C//DTD SVG 20010904//EN"
 "http://www.w3.org/TR/2001/REC-SVG-20010904/DTD/svg10.dtd">
<svg version="1.0" xmlns="http://www.w3.org/2000/svg"
 width="60.000000pt" height="80.000000pt" viewBox="0 0 60.000000 80.000000"
 preserveAspectRatio="xMidYMid meet">

<g transform="translate(0.000000,80.000000) scale(0.100000,-0.100000)"
fill="#000000" stroke="none">
<path d="M215 780 c-4 -13 -16 -20 -33 -21 -20 0 -22 -2 -10 -7 9 -4 26 -19
37 -34 l21 -27 -52 -10 c-29 -5 -73 -14 -98 -18 -41 -8 -46 -12 -59 -48 -26
-76 -9 -225 26 -225 7 0 13 -7 13 -15 0 -7 6 -18 13 -22 7 -4 23 -39 36 -78
29 -90 31 -99 32 -168 1 -31 5 -60 10 -63 5 -3 7 -9 4 -14 -10 -16 34 -31 78
-28 l42 3 1 70 c0 39 4 93 9 120 4 28 9 61 11 73 9 80 22 -21 16 -133 -1 -27
0 -69 3 -92 6 -42 7 -43 44 -43 23 0 48 8 64 20 14 11 32 20 40 20 11 0 15 18
16 83 4 175 13 222 52 254 36 31 60 84 61 138 0 41 -15 109 -30 133 -5 7 -45
18 -90 26 -45 7 -85 16 -89 19 -9 10 26 45 51 50 17 3 15 5 -6 6 -20 1 -28 6
-28 20 0 23 -26 31 -112 31 -58 0 -67 -3 -73 -20z"/>
</g>
</svg>
