<?xml version="1.0" encoding="UTF-8"?>
<svg xmlns="http://www.w3.org/2000/svg" xmlns:xlink="http://www.w3.org/1999/xlink" width="27px" height="36px" viewBox="0 0 27 36" version="1.1">
<g id="surface1">
<path style=" stroke:none;fill-rule:nonzero;fill:rgb(0%,0%,0%);fill-opacity:1;" d="M 9.675781 0.898438 C 9.496094 1.484375 8.953125 1.800781 8.191406 1.84375 C 7.289062 1.84375 7.199219 1.933594 7.738281 2.160156 C 8.144531 2.339844 8.910156 3.015625 9.40625 3.691406 L 10.351562 4.90625 L 8.011719 5.355469 C 6.703125 5.578125 4.726562 5.984375 3.601562 6.164062 C 1.753906 6.523438 1.53125 6.703125 0.945312 8.324219 C -0.226562 11.746094 0.539062 18.449219 2.113281 18.449219 C 2.429688 18.449219 2.699219 18.765625 2.699219 19.125 C 2.699219 19.441406 2.96875 19.933594 3.285156 20.113281 C 3.601562 20.296875 4.320312 21.871094 4.90625 23.625 C 6.210938 27.675781 6.300781 28.078125 6.34375 31.183594 C 6.390625 32.578125 6.570312 33.886719 6.796875 34.019531 C 7.019531 34.15625 7.109375 34.425781 6.976562 34.648438 C 6.523438 35.371094 8.503906 36.046875 10.484375 35.910156 L 12.375 35.773438 L 12.421875 32.625 C 12.421875 30.871094 12.601562 28.441406 12.824219 27.226562 C 13.003906 25.964844 13.230469 24.480469 13.320312 23.941406 C 13.726562 20.339844 14.308594 24.886719 14.039062 29.925781 C 13.996094 31.140625 14.039062 33.03125 14.175781 34.066406 C 14.445312 35.953125 14.488281 36 16.15625 36 C 17.191406 36 18.316406 35.640625 19.035156 35.101562 C 19.664062 34.605469 20.476562 34.199219 20.835938 34.199219 C 21.328125 34.199219 21.511719 33.390625 21.554688 30.464844 C 21.734375 22.589844 22.140625 20.476562 23.894531 19.035156 C 25.515625 17.640625 26.59375 15.253906 26.640625 12.824219 C 26.640625 10.980469 25.964844 7.921875 25.289062 6.839844 C 25.066406 6.523438 23.265625 6.03125 21.238281 5.671875 C 19.214844 5.355469 17.414062 4.949219 17.234375 4.816406 C 16.828125 4.363281 18.40625 2.789062 19.53125 2.566406 C 20.296875 2.429688 20.203125 2.339844 19.261719 2.296875 C 18.359375 2.25 18 2.023438 18 1.394531 C 18 0.359375 16.828125 0 12.960938 0 C 10.351562 0 9.945312 0.136719 9.675781 0.898438 Z M 9.675781 0.898438 "/>
</g>
</svg>
