<?xml version="1.0" encoding="UTF-8"?>
<svg xmlns="http://www.w3.org/2000/svg" xmlns:xlink="http://www.w3.org/1999/xlink" width="40px" height="40px" viewBox="0 0 40 40" version="1.1">
<g id="surface1">
<path style=" stroke:none;fill-rule:nonzero;fill:rgb(32.941176%,19.607843%,14.117647%);fill-opacity:1;" d="M 30.203125 39.296875 C 29.4375 39.296875 28.636719 39.078125 27.828125 38.648438 L 20.03125 34.492188 L 12.234375 38.648438 C 11.421875 39.078125 10.625 39.296875 9.859375 39.296875 C 8.785156 39.296875 7.828125 38.867188 7.164062 38.082031 C 6.621094 37.441406 6.042969 36.285156 6.355469 34.414062 L 7.835938 25.632812 L 1.566406 19.570312 C 0.242188 18.292969 -0.257812 16.746094 0.191406 15.328125 C 0.640625 13.910156 1.945312 12.933594 3.757812 12.652344 L 12.492188 11.292969 L 16.394531 3.496094 C 17.21875 1.851562 18.542969 0.910156 20.03125 0.910156 C 21.519531 0.910156 22.84375 1.851562 23.664062 3.492188 L 27.570312 11.292969 L 36.300781 12.652344 C 38.117188 12.933594 39.417969 13.910156 39.867188 15.328125 C 40.320312 16.746094 39.820312 18.292969 38.496094 19.570312 L 32.226562 25.632812 L 33.707031 34.414062 C 34.019531 36.285156 33.4375 37.441406 32.898438 38.082031 C 32.234375 38.867188 31.273438 39.296875 30.203125 39.296875 "/>
<path style=" stroke:none;fill-rule:nonzero;fill:rgb(100%,80.784314%,0%);fill-opacity:1;" d="M 21.648438 4.507812 L 26.070312 13.34375 L 35.953125 14.882812 C 37.925781 15.191406 38.359375 16.5625 36.925781 17.949219 L 29.804688 24.835938 L 31.476562 34.789062 C 31.808594 36.757812 30.648438 37.59375 28.890625 36.652344 L 20.03125 31.933594 L 11.171875 36.652344 C 9.410156 37.59375 8.253906 36.757812 8.582031 34.789062 L 10.257812 24.835938 L 3.132812 17.949219 C 1.699219 16.5625 2.132812 15.191406 4.105469 14.882812 L 13.992188 13.34375 L 18.414062 4.507812 C 19.304688 2.722656 20.753906 2.722656 21.648438 4.507812 "/>
<path style=" stroke:none;fill-rule:nonzero;fill:rgb(100%,86.666667%,8.235294%);fill-opacity:1;" d="M 29.804688 24.835938 L 31.476562 34.789062 "/>
<path style=" stroke:none;fill-rule:nonzero;fill:rgb(80%,54.117647%,12.156863%);fill-opacity:1;" d="M 28.351562 24.355469 L 34.589844 18.324219 C 24.710938 17.476562 16.1875 19.414062 9.449219 22.167969 L 11.710938 24.355469 L 9.917969 35.015625 C 9.859375 35.371094 10.210938 35.632812 10.535156 35.460938 L 20.03125 30.398438 L 29.527344 35.460938 C 29.851562 35.632812 30.203125 35.375 30.144531 35.015625 Z M 28.351562 24.355469 "/>
<path style=" stroke:none;fill-rule:nonzero;fill:rgb(95.686275%,67.843137%,12.941176%);fill-opacity:1;" d="M 9.449219 22.167969 L 11.710938 24.355469 L 11.085938 28.058594 C 15.210938 26.246094 21.914062 24.296875 29.175781 23.554688 L 34.589844 18.324219 C 24.710938 17.476562 16.1875 19.414062 9.449219 22.167969 "/>
<path style=" stroke:none;fill-rule:nonzero;fill:rgb(100%,94.509804%,0%);fill-opacity:1;" d="M 9.449219 22.167969 C 16.1875 19.414062 24.710938 17.476562 34.589844 18.324219 L 35.984375 16.976562 C 36.257812 16.710938 36.121094 16.277344 35.746094 16.222656 L 25.171875 14.574219 L 24.625 13.480469 C 18.078125 14.085938 12.414062 15.960938 6.117188 18.945312 Z M 9.449219 22.167969 "/>
<path style=" stroke:none;fill-rule:nonzero;fill:rgb(100%,94.509804%,0%);fill-opacity:1;" d="M 10.976562 35.511719 C 10.976562 36.042969 10.519531 36.472656 9.949219 36.472656 C 9.378906 36.472656 8.917969 36.042969 8.917969 35.511719 C 8.917969 34.984375 9.378906 34.554688 9.949219 34.554688 C 10.519531 34.554688 10.976562 34.984375 10.976562 35.511719 "/>
<path style=" stroke:none;fill-rule:nonzero;fill:rgb(100%,100%,100%);fill-opacity:1;" d="M 19.75 4.246094 C 19.269531 4.246094 16.367188 10.835938 14.820312 13.148438 C 14.757812 13.140625 14.695312 13.132812 14.632812 13.132812 C 13.972656 13.132812 13.429688 13.601562 13.367188 14.207031 C 11.195312 14.808594 6.023438 15.390625 3.589844 15.890625 C 3.628906 16.675781 10.933594 15.933594 13.863281 15.261719 C 14.074219 15.414062 14.34375 15.507812 14.632812 15.507812 C 15.335938 15.507812 15.90625 14.976562 15.90625 14.320312 C 15.90625 14.160156 15.871094 14.007812 15.808594 13.867188 C 17.585938 11.113281 20.496094 4.183594 19.75 4.246094 "/>
</g>
</svg>
